<svg width="295" height="201" viewBox="0 0 295 201" fill="none" xmlns="http://www.w3.org/2000/svg">
<g filter="url(#filter0_d_197_6)">
<path d="M77.2724 31.156C74.6084 31.156 72.8818 32.932 72.0924 36.484C71.3524 39.9867 70.9824 44.1553 70.9824 48.99C70.9824 54.5647 71.8211 58.9307 73.4984 62.088C75.1758 65.196 78.0371 66.75 82.0824 66.75C86.4238 66.75 89.7784 64.678 92.1464 60.534C94.0704 61.718 95.0324 63.5187 95.0324 65.936C95.0324 68.452 94.1938 70.598 92.5164 72.374C90.8391 74.15 88.6684 75.4573 86.0044 76.296C83.3898 77.184 80.6764 77.628 77.8644 77.628C72.4378 77.628 67.9238 76.518 64.3224 74.298C60.7704 72.0287 58.1558 68.97 56.4784 65.122C54.8011 61.274 53.9624 56.8587 53.9624 51.876C53.9624 43.4893 55.9851 37.0267 60.0304 32.488C64.1251 27.9493 70.2178 25.68 78.3084 25.68C82.9951 25.68 86.9171 26.4447 90.0744 27.974C93.2811 29.5033 94.8844 32.0687 94.8844 35.67C94.8844 38.2353 93.9964 40.2827 92.2204 41.812C90.4444 43.292 88.2491 44.032 85.6344 44.032C84.0064 44.032 82.7238 43.884 81.7864 43.588C82.0824 42.108 82.2304 40.7513 82.2304 39.518C82.2304 37.002 81.8851 34.9793 81.1944 33.45C80.5038 31.9207 79.1964 31.156 77.2724 31.156ZM117.667 36.78C124.031 36.78 128.865 38.5067 132.171 41.96C135.525 45.364 137.203 50.248 137.203 56.612C137.203 60.8053 136.438 64.4807 134.909 67.638C133.379 70.7953 131.135 73.262 128.175 75.038C125.264 76.7647 121.761 77.628 117.667 77.628C113.671 77.628 110.193 76.7893 107.233 75.112C104.322 73.4347 102.077 71.0667 100.499 68.008C98.9199 64.9493 98.1306 61.3973 98.1306 57.352C98.1306 50.8893 99.8079 45.8573 103.163 42.256C106.567 38.6053 111.401 36.78 117.667 36.78ZM117.667 73.188C119.689 73.188 120.972 71.6833 121.515 68.674C122.107 65.6647 122.403 61.7673 122.403 56.982C122.403 52.246 122.107 48.4473 121.515 45.586C120.972 42.6753 119.689 41.22 117.667 41.22C115.644 41.22 114.337 42.6753 113.745 45.586C113.202 48.4473 112.931 52.246 112.931 56.982C112.931 61.7673 113.202 65.6647 113.745 68.674C114.337 71.6833 115.644 73.188 117.667 73.188ZM157.255 22.72V67.342C157.255 70.5487 158.02 73.1387 159.549 75.112C158.809 75.7533 157.773 76.2467 156.441 76.592C155.109 76.9373 153.851 77.11 152.667 77.11C149.461 77.11 146.994 76.3453 145.267 74.816C143.59 73.2867 142.751 70.968 142.751 67.86V24.2L157.255 22.72ZM182.778 36.78C189.142 36.78 193.977 38.5067 197.282 41.96C200.637 45.364 202.314 50.248 202.314 56.612C202.314 60.8053 201.549 64.4807 200.02 67.638C198.491 70.7953 196.246 73.262 193.286 75.038C190.375 76.7647 186.873 77.628 182.778 77.628C178.782 77.628 175.304 76.7893 172.344 75.112C169.433 73.4347 167.189 71.0667 165.61 68.008C164.031 64.9493 163.242 61.3973 163.242 57.352C163.242 50.8893 164.919 45.8573 168.274 42.256C171.678 38.6053 176.513 36.78 182.778 36.78ZM182.778 73.188C184.801 73.188 186.083 71.6833 186.626 68.674C187.218 65.6647 187.514 61.7673 187.514 56.982C187.514 52.246 187.218 48.4473 186.626 45.586C186.083 42.6753 184.801 41.22 182.778 41.22C180.755 41.22 179.448 42.6753 178.856 45.586C178.313 48.4473 178.042 52.246 178.042 56.982C178.042 61.7673 178.313 65.6647 178.856 68.674C179.448 71.6833 180.755 73.188 182.778 73.188ZM225.549 43.144C224.118 43.144 223.23 43.9333 222.885 45.512C222.539 47.0413 222.367 49.3107 222.367 52.32V76H207.863V38.26L219.555 37.372L220.147 44.032C220.985 41.7133 222.317 39.9373 224.143 38.704C226.017 37.4213 228.213 36.78 230.729 36.78C233.886 36.78 236.377 37.668 238.203 39.444C240.077 41.1707 241.015 43.588 241.015 46.696C241.015 49.3107 240.275 51.358 238.795 52.838C237.364 54.2687 235.317 54.984 232.653 54.984C232.011 54.984 231.247 54.9347 230.359 54.836C229.52 54.688 228.928 54.4907 228.583 54.244C228.879 52.9613 229.027 51.506 229.027 49.878C229.027 45.3887 227.867 43.144 225.549 43.144Z" fill="black"/>
<path d="M91.8447 125.238L84.8887 119.318C87.1087 119.367 89.0327 118.849 90.6607 117.764C92.3381 116.679 93.6207 115.223 94.5087 113.398C95.3967 111.523 95.8407 109.501 95.8407 107.33C95.8407 104.37 95.0514 101.977 93.4727 100.152C91.8941 98.2773 89.8714 96.9207 87.4047 96.082C84.9874 95.194 82.4467 94.75 79.7827 94.75C77.4641 94.75 75.2194 95.0707 73.0487 95.712C70.8781 96.304 68.9294 97.2167 67.2027 98.45C65.4761 99.634 64.0947 101.089 63.0587 102.816C62.0721 104.543 61.5787 106.541 61.5787 108.81C61.5787 110.29 61.7021 111.696 61.9487 113.028C62.2447 114.36 62.7874 115.914 63.5767 117.69C62.7874 118.578 61.8254 119.219 60.6907 119.614C59.6054 120.009 58.6434 120.206 57.8047 120.206C55.3874 120.206 53.3401 119.688 51.6627 118.652C50.0347 117.567 48.8014 116.185 47.9627 114.508C47.1734 112.831 46.7787 111.079 46.7787 109.254C46.7787 105.85 47.7654 102.939 49.7387 100.522C51.7614 98.0553 54.4501 96.0573 57.8047 94.528C61.1594 92.9493 64.8594 91.79 68.9047 91.05C72.9501 90.31 77.0201 89.94 81.1147 89.94C88.4654 89.94 94.4594 90.7047 99.0967 92.234C103.734 93.7633 107.138 95.8353 109.309 98.45C111.529 101.065 112.639 104.025 112.639 107.33C112.639 109.747 111.997 111.992 110.715 114.064C109.481 116.087 107.829 117.887 105.757 119.466C103.685 120.995 101.44 122.278 99.0227 123.314C96.6054 124.301 94.2127 124.942 91.8447 125.238ZM66.9807 142.776C64.8594 142.776 62.9601 142.381 61.2827 141.592C59.6054 140.803 58.7174 139.717 58.6187 138.336C59.5067 137.991 60.1481 137.571 60.5427 137.078C60.9374 136.535 61.2581 135.721 61.5047 134.636C61.7514 133.551 62.0474 132.046 62.3927 130.122L65.8707 112.14C66.4627 109.18 67.2027 106.713 68.0907 104.74C69.0281 102.767 70.3354 101.287 72.0127 100.3C73.7394 99.3133 76.1074 98.82 79.1167 98.82C81.1394 98.82 82.9647 99.19 84.5927 99.93C86.2701 100.621 87.1827 101.607 87.3307 102.89C86.5907 103.186 85.9987 103.63 85.5547 104.222C85.1601 104.814 84.8394 105.653 84.5927 106.738C84.3461 107.823 84.0254 109.328 83.6307 111.252L80.2267 129.086C79.6841 132.095 78.9687 134.636 78.0807 136.708C77.1927 138.731 75.8854 140.235 74.1587 141.222C72.4814 142.258 70.0887 142.776 66.9807 142.776ZM103.389 151.582C100.231 151.582 97.7401 150.941 95.9147 149.658C94.1387 148.375 92.7574 146.747 91.7707 144.774C91.1787 143.541 90.6607 142.233 90.2167 140.852C89.8221 139.471 89.4521 138.015 89.1067 136.486C88.7614 134.907 88.3914 133.23 87.9967 131.454C87.6514 129.678 87.2321 127.779 86.7387 125.756C86.2454 123.733 85.6287 121.587 84.8887 119.318L97.9127 123.092C98.9981 124.325 100.059 125.83 101.095 127.606C102.131 129.333 103.167 131.133 104.203 133.008C105.288 134.833 106.373 136.56 107.459 138.188C108.544 139.816 109.679 141.123 110.863 142.11C112.047 143.146 113.28 143.689 114.563 143.738C113.971 146.106 112.688 148.005 110.715 149.436C108.741 150.867 106.299 151.582 103.389 151.582ZM125.336 142.48C123.264 142.48 121.34 142.159 119.564 141.518C117.837 140.926 116.456 139.915 115.42 138.484C114.384 137.053 113.866 135.105 113.866 132.638C113.866 131.553 114.014 129.9 114.31 127.68C114.606 125.411 115.074 122.303 115.716 118.356C116.406 114.409 117.27 109.377 118.306 103.26L134.808 101.632C133.821 107.059 132.958 111.671 132.218 115.47C131.527 119.219 130.935 122.327 130.442 124.794C129.998 127.261 129.652 129.259 129.406 130.788C129.208 132.317 129.11 133.551 129.11 134.488C129.11 135.031 129.134 135.549 129.184 136.042C129.282 136.535 129.455 136.93 129.702 137.226C129.998 137.522 130.466 137.67 131.108 137.67C132.341 137.67 133.352 137.201 134.142 136.264C134.931 135.327 135.548 134.192 135.992 132.86C136.436 131.479 136.756 130.221 136.954 129.086L141.394 103.26L157.822 101.632L152.642 129.16C152.592 129.555 152.518 130.048 152.42 130.64C152.321 131.232 152.272 131.775 152.272 132.268C152.272 133.255 152.568 134.192 153.16 135.08C153.752 135.919 154.714 136.387 156.046 136.486C155.651 137.867 154.862 139.002 153.678 139.89C152.543 140.778 151.26 141.419 149.83 141.814C148.399 142.258 147.018 142.48 145.686 142.48C144.008 142.48 142.38 142.135 140.802 141.444C139.272 140.753 138.236 139.693 137.694 138.262C136.312 139.594 134.512 140.63 132.292 141.37C130.121 142.11 127.802 142.48 125.336 142.48ZM174.32 142.628C172.199 142.628 170.102 142.48 168.03 142.184C166.007 141.937 164.133 141.493 162.406 140.852C160.729 140.211 159.397 139.347 158.41 138.262C157.423 137.177 156.93 135.82 156.93 134.192C156.979 132.761 157.349 131.553 158.04 130.566C158.681 129.579 159.619 128.815 160.852 128.272C162.135 127.729 163.664 127.458 165.44 127.458C166.525 127.458 167.66 127.581 168.844 127.828C170.028 128.075 171.015 128.445 171.804 128.938C171.557 129.925 171.409 130.813 171.36 131.602C171.311 132.391 171.286 133.304 171.286 134.34C171.385 135.573 171.804 136.585 172.544 137.374C173.333 138.163 174.394 138.558 175.726 138.558C177.107 138.558 178.193 138.262 178.982 137.67C179.821 137.029 180.24 136.239 180.24 135.302C180.289 134.019 179.697 132.835 178.464 131.75C177.28 130.615 175.775 129.505 173.95 128.42C172.174 127.335 170.373 126.2 168.548 125.016C167.117 124.029 165.81 122.969 164.626 121.834C163.491 120.699 162.603 119.466 161.962 118.134C161.321 116.753 161 115.248 161 113.62C161.049 111.597 161.666 109.846 162.85 108.366C164.034 106.837 165.588 105.603 167.512 104.666C169.485 103.679 171.656 102.964 174.024 102.52C176.441 102.027 178.859 101.78 181.276 101.78C183.743 101.78 186.16 102.076 188.528 102.668C190.896 103.211 192.845 104.123 194.374 105.406C195.903 106.639 196.643 108.317 196.594 110.438C196.545 112.609 195.805 114.212 194.374 115.248C192.943 116.284 191.019 116.802 188.602 116.802C187.566 116.802 186.481 116.679 185.346 116.432C184.261 116.136 183.274 115.741 182.386 115.248C182.583 114.705 182.731 114.089 182.83 113.398C182.978 112.658 183.077 111.918 183.126 111.178C183.175 109.55 182.855 108.218 182.164 107.182C181.473 106.146 180.413 105.603 178.982 105.554C178.045 105.554 177.181 105.85 176.392 106.442C175.652 106.985 175.257 107.823 175.208 108.958C175.159 110.093 175.603 111.203 176.54 112.288C177.477 113.324 178.711 114.36 180.24 115.396C181.769 116.383 183.373 117.369 185.05 118.356C186.826 119.392 188.38 120.477 189.712 121.612C191.093 122.697 192.179 123.931 192.968 125.312C193.757 126.644 194.127 128.223 194.078 130.048C194.029 132.416 193.264 134.537 191.784 136.412C190.304 138.287 188.109 139.791 185.198 140.926C182.287 142.011 178.661 142.579 174.32 142.628ZM229.436 142.48C226.723 142.48 224.478 141.814 222.702 140.482C220.926 139.101 220.038 137.053 220.038 134.34C220.038 133.255 220.186 131.947 220.482 130.418C220.778 128.839 221.124 127.187 221.518 125.46C221.962 123.684 222.382 121.908 222.776 120.132C223.171 118.356 223.516 116.654 223.812 115.026C224.108 113.398 224.256 111.967 224.256 110.734C224.256 109.994 224.158 109.279 223.96 108.588C223.763 107.848 223.171 107.478 222.184 107.478C221 107.478 220.038 108.07 219.298 109.254C218.558 110.389 217.942 111.77 217.448 113.398C217.004 115.026 216.634 116.58 216.338 118.06L211.898 141L195.47 142.628L202.352 108.07L217.078 106.22C218.608 104.543 220.458 103.383 222.628 102.742C224.799 102.101 227.093 101.78 229.51 101.78C232.618 101.78 235.159 102.421 237.132 103.704C239.106 104.937 240.092 107.182 240.092 110.438C240.092 111.671 239.944 113.053 239.648 114.582C239.402 116.062 239.081 117.616 238.686 119.244C238.292 120.823 237.897 122.401 237.502 123.98C237.157 125.509 236.836 126.965 236.54 128.346C236.294 129.727 236.17 130.936 236.17 131.972C236.17 133.255 236.466 134.291 237.058 135.08C237.65 135.869 238.612 136.338 239.944 136.486C239.303 138.558 237.946 140.063 235.874 141C233.802 141.987 231.656 142.48 229.436 142.48ZM216.486 109.55L202.204 108.736C202.648 106.664 203.043 104.641 203.388 102.668C203.734 100.645 204.03 98.672 204.276 96.748C204.523 94.7747 204.72 92.9 204.868 91.124C204.918 90.4827 204.918 89.866 204.868 89.274C204.868 88.6327 204.868 88.016 204.868 87.424C206.398 86.5853 207.902 86.018 209.382 85.722C210.862 85.3767 212.244 85.204 213.526 85.204C215.697 85.204 217.473 85.7467 218.854 86.832C220.236 87.868 220.902 89.6193 220.852 92.086C220.852 92.9247 220.778 93.788 220.63 94.676C220.532 95.564 220.359 96.526 220.112 97.562C219.866 98.5487 219.57 99.634 219.224 100.818C218.879 102.002 218.484 103.334 218.04 104.814C217.596 106.245 217.078 107.823 216.486 109.55Z" fill="url(#paint0_linear_197_6)"/>
</g>
<g filter="url(#filter1_d_197_6)">
<path d="M8.818 186.64C7.73 186.64 6.84467 186.384 6.162 185.872C5.50067 185.339 5.01 184.624 4.69 183.728C4.39133 182.811 4.242 181.765 4.242 180.592C4.242 179.013 4.45533 177.531 4.882 176.144C5.33 174.736 5.938 173.499 6.706 172.432C7.49533 171.365 8.434 170.533 9.522 169.936C10.61 169.339 11.7833 169.04 13.042 169.04C13.682 169.04 14.258 169.104 14.77 169.232C15.3033 169.339 15.8687 169.509 16.466 169.744L19.442 170.192C19.058 172.24 18.6633 174.309 18.258 176.4C17.874 178.469 17.458 180.56 17.01 182.672C16.9887 182.864 16.9567 183.088 16.914 183.344C16.8713 183.6 16.85 183.824 16.85 184.016C16.85 184.336 16.9247 184.592 17.074 184.784C17.2447 184.976 17.5007 185.083 17.842 185.104C17.7353 185.467 17.554 185.765 17.298 186C17.0633 186.213 16.786 186.373 16.466 186.48C16.1673 186.587 15.826 186.64 15.442 186.64C14.866 186.64 14.3753 186.48 13.97 186.16C13.5647 185.861 13.33 185.413 13.266 184.816C12.7113 185.349 12.05 185.787 11.282 186.128C10.5353 186.469 9.714 186.64 8.818 186.64ZM10.226 184.72C11.0367 184.72 11.6873 184.453 12.178 183.92C12.69 183.387 13.0953 182.725 13.394 181.936C13.6927 181.125 13.9167 180.347 14.066 179.6L15.474 171.952C15.0473 171.611 14.5993 171.365 14.13 171.216C13.682 171.045 13.266 170.96 12.882 170.96C12.2207 170.96 11.6233 171.152 11.09 171.536C10.578 171.92 10.1193 172.443 9.714 173.104C9.33 173.765 8.99933 174.533 8.722 175.408C8.466 176.283 8.274 177.221 8.146 178.224C8.018 179.205 7.954 180.197 7.954 181.2C7.954 182.181 8.114 183.013 8.434 183.696C8.754 184.379 9.35133 184.72 10.226 184.72ZM19.378 170.512L15.858 170.256C16.0713 169.083 16.2527 167.899 16.402 166.704C16.5727 165.509 16.6687 164.485 16.69 163.632C16.69 163.376 16.6793 163.141 16.658 162.928C16.658 162.715 16.6367 162.512 16.594 162.32C16.786 162.192 17.0313 162.085 17.33 162C17.6287 161.915 17.9487 161.872 18.29 161.872C18.8447 161.872 19.3567 162.043 19.826 162.384C20.2953 162.704 20.53 163.291 20.53 164.144C20.53 164.379 20.466 164.837 20.338 165.52C20.2313 166.203 20.0927 166.992 19.922 167.888C19.7513 168.784 19.57 169.659 19.378 170.512ZM27.3488 186.64C26.1328 186.64 25.0768 186.416 24.1808 185.968C23.3061 185.499 22.6341 184.795 22.1648 183.856C21.6954 182.917 21.4608 181.733 21.4608 180.304C21.4608 178.96 21.6421 177.627 22.0048 176.304C22.3887 174.96 22.9541 173.744 23.7008 172.656C24.4474 171.568 25.3968 170.693 26.5488 170.032C27.7221 169.371 29.0981 169.04 30.6768 169.04C31.5088 169.04 32.2554 169.157 32.9168 169.392C33.5781 169.627 34.1008 170.011 34.4848 170.544C34.8688 171.077 35.0608 171.803 35.0608 172.72C35.0608 173.957 34.6874 175.003 33.9408 175.856C33.2154 176.688 32.2448 177.328 31.0288 177.776C29.8128 178.203 28.4688 178.416 26.9968 178.416C26.7194 178.416 26.4101 178.416 26.0688 178.416C25.7488 178.395 25.4821 178.373 25.2688 178.352C25.2474 178.693 25.2261 179.035 25.2048 179.376C25.1834 179.696 25.1727 179.995 25.1727 180.272C25.1727 181.424 25.3861 182.331 25.8128 182.992C26.2394 183.632 27.0181 183.952 28.1488 183.952C29.0661 183.952 29.8874 183.739 30.6128 183.312C31.3381 182.864 31.9034 182.235 32.3088 181.424C32.6074 181.509 32.8101 181.68 32.9168 181.936C33.0234 182.192 33.0768 182.459 33.0768 182.736C33.0768 183.376 32.8528 183.995 32.4048 184.592C31.9568 185.189 31.3061 185.68 30.4528 186.064C29.5994 186.448 28.5648 186.64 27.3488 186.64ZM25.4928 176.784C26.2181 176.784 26.9328 176.709 27.6368 176.56C28.3621 176.411 29.0234 176.176 29.6208 175.856C30.2181 175.515 30.6874 175.088 31.0288 174.576C31.3914 174.043 31.5728 173.424 31.5728 172.72C31.5728 172.101 31.4234 171.643 31.1248 171.344C30.8474 171.024 30.4421 170.864 29.9088 170.864C29.3114 170.864 28.7568 171.056 28.2448 171.44C27.7541 171.803 27.3274 172.283 26.9648 172.88C26.6021 173.477 26.2928 174.117 26.0368 174.8C25.8021 175.483 25.6208 176.144 25.4928 176.784ZM40.6298 186.704C39.9471 186.704 39.2751 186.629 38.6138 186.48C37.9738 186.352 37.3871 186.149 36.8538 185.872C36.3204 185.595 35.8938 185.243 35.5738 184.816C35.2751 184.389 35.1258 183.899 35.1258 183.344C35.1258 182.725 35.2858 182.245 35.6058 181.904C35.9258 181.563 36.2991 181.317 36.7258 181.168C37.1738 180.997 37.6004 180.912 38.0058 180.912C38.2404 180.912 38.4751 180.944 38.7098 181.008C38.9444 181.051 39.1364 181.157 39.2858 181.328C39.1791 181.627 39.0831 181.915 38.9978 182.192C38.9124 182.448 38.8698 182.747 38.8698 183.088C38.8911 183.621 39.1044 184.059 39.5098 184.4C39.9151 184.72 40.4698 184.88 41.1738 184.88C41.9418 184.88 42.5818 184.677 43.0938 184.272C43.6271 183.845 43.8938 183.301 43.8938 182.64C43.8938 182.085 43.7444 181.595 43.4458 181.168C43.1471 180.72 42.7524 180.315 42.2618 179.952C41.7924 179.568 41.3018 179.195 40.7898 178.832C40.2138 178.427 39.6484 178 39.0938 177.552C38.5391 177.083 38.0804 176.56 37.7178 175.984C37.3764 175.387 37.2057 174.683 37.2057 173.872C37.2057 173.083 37.4084 172.389 37.8138 171.792C38.2191 171.173 38.7524 170.661 39.4138 170.256C40.0751 169.851 40.8111 169.552 41.6218 169.36C42.4538 169.147 43.2751 169.04 44.0858 169.04C44.8324 169.04 45.5684 169.136 46.2938 169.328C47.0404 169.52 47.6591 169.851 48.1498 170.32C48.6404 170.768 48.8751 171.387 48.8538 172.176C48.8538 173.008 48.5871 173.648 48.0538 174.096C47.5418 174.544 46.9764 174.768 46.3578 174.768C46.1231 174.768 45.8671 174.747 45.5898 174.704C45.3124 174.64 45.0671 174.523 44.8538 174.352C45.0031 174.075 45.1098 173.787 45.1738 173.488C45.2591 173.189 45.3018 172.891 45.3018 172.592C45.3018 172.037 45.1098 171.611 44.7258 171.312C44.3631 170.992 43.8404 170.832 43.1578 170.832C42.4751 170.832 41.8884 171.024 41.3978 171.408C40.9284 171.771 40.6938 172.283 40.6938 172.944C40.6938 173.413 40.8111 173.84 41.0458 174.224C41.2804 174.608 41.5898 174.971 41.9738 175.312C42.3578 175.653 42.7738 175.984 43.2218 176.304C43.8831 176.752 44.5338 177.221 45.1738 177.712C45.8351 178.181 46.3791 178.725 46.8058 179.344C47.2538 179.963 47.4671 180.72 47.4458 181.616C47.4458 182.661 47.1151 183.568 46.4538 184.336C45.8138 185.083 44.9711 185.659 43.9258 186.064C42.8804 186.491 41.7818 186.704 40.6298 186.704ZM54.7868 186.64C53.6988 186.64 52.8134 186.384 52.1308 185.872C51.4694 185.339 50.9788 184.624 50.6588 183.728C50.3601 182.811 50.2108 181.765 50.2108 180.592C50.2108 179.013 50.4241 177.531 50.8508 176.144C51.2774 174.736 51.8854 173.499 52.6748 172.432C53.4854 171.365 54.4241 170.533 55.4908 169.936C56.5574 169.339 57.7308 169.04 59.0108 169.04C60.0561 169.04 61.1548 169.264 62.3068 169.712L65.5388 169.296L62.9788 182.672C62.9574 182.864 62.9254 183.088 62.8828 183.344C62.8401 183.6 62.8188 183.824 62.8188 184.016C62.8188 184.336 62.8934 184.592 63.0428 184.784C63.2134 184.976 63.4694 185.083 63.8108 185.104C63.7041 185.467 63.5228 185.765 63.2668 186C63.0321 186.213 62.7548 186.373 62.4348 186.48C62.1361 186.587 61.7948 186.64 61.4108 186.64C60.8348 186.64 60.3441 186.48 59.9388 186.16C59.5334 185.861 59.2988 185.413 59.2348 184.816C58.6801 185.349 58.0188 185.787 57.2508 186.128C56.5041 186.469 55.6828 186.64 54.7868 186.64ZM56.1948 184.72C57.0054 184.72 57.6561 184.453 58.1468 183.92C58.6588 183.387 59.0641 182.725 59.3628 181.936C59.6614 181.125 59.8854 180.347 60.0348 179.6L61.4428 171.952C61.0161 171.611 60.5681 171.365 60.0988 171.216C59.6508 171.045 59.2348 170.96 58.8508 170.96C58.1894 170.96 57.5921 171.152 57.0588 171.536C56.5468 171.92 56.0881 172.443 55.6828 173.104C55.2988 173.765 54.9681 174.533 54.6908 175.408C54.4348 176.283 54.2428 177.221 54.1148 178.224C53.9868 179.205 53.9227 180.197 53.9227 181.2C53.9227 182.181 54.0828 183.013 54.4028 183.696C54.7228 184.379 55.3201 184.72 56.1948 184.72ZM65.9017 192.336C65.0484 192.336 64.4404 192.176 64.0777 191.856C63.6937 191.557 63.4697 191.173 63.4057 190.704C64.0031 190.619 64.5151 190.459 64.9417 190.224C65.3684 189.989 65.7417 189.637 66.0617 189.168C66.3818 188.72 66.6591 188.123 66.8938 187.376C67.1284 186.629 67.3524 185.712 67.5658 184.624L70.2218 171.12H67.9498L68.2378 169.68H70.4458L70.9258 167.952C71.2671 166.608 71.7791 165.584 72.4618 164.88C73.1658 164.155 74.0404 163.653 75.0858 163.376C76.1311 163.099 77.3471 162.96 78.7338 162.96C79.3311 162.96 79.9711 162.992 80.6538 163.056C81.3578 163.12 82.0191 163.237 82.6378 163.408C83.2564 163.579 83.7578 163.845 84.1418 164.208C84.5471 164.549 84.7498 165.008 84.7498 165.584C84.7498 166.053 84.6218 166.448 84.3658 166.768C84.1098 167.067 83.7684 167.301 83.3418 167.472C82.9364 167.621 82.4884 167.696 81.9978 167.696C81.7204 167.696 81.4004 167.664 81.0378 167.6C80.6964 167.536 80.4404 167.44 80.2698 167.312C80.5898 166.779 80.7498 166.309 80.7498 165.904C80.7498 165.328 80.4938 164.933 79.9818 164.72C79.4911 164.485 78.9151 164.368 78.2538 164.368C77.1871 164.368 76.3338 164.613 75.6938 165.104C75.0538 165.595 74.6378 166.395 74.4458 167.504L74.0618 169.68H83.5978L80.9738 182.672C80.9524 182.843 80.9204 183.067 80.8778 183.344C80.8351 183.6 80.8138 183.824 80.8138 184.016C80.8138 184.336 80.8991 184.592 81.0698 184.784C81.2404 184.976 81.4964 185.083 81.8378 185.104C81.6884 185.637 81.3791 186.021 80.9098 186.256C80.4618 186.512 79.9711 186.64 79.4378 186.64C78.7551 186.64 78.2111 186.448 77.8058 186.064C77.4218 185.68 77.2298 185.147 77.2298 184.464C77.2298 184.208 77.2511 183.899 77.2938 183.536C77.3578 183.173 77.4218 182.8 77.4858 182.416C77.5498 182.011 77.6244 181.637 77.7098 181.296C77.7951 180.933 77.8591 180.624 77.9018 180.368L79.7258 171.12H73.7738L70.9578 185.584C70.7018 186.992 70.3498 188.197 69.9018 189.2C69.4751 190.224 68.9311 191.003 68.2698 191.536C67.6084 192.069 66.8191 192.336 65.9017 192.336ZM91.38 186.64C90.164 186.64 89.108 186.416 88.212 185.968C87.3373 185.499 86.6653 184.795 86.196 183.856C85.7267 182.917 85.492 181.733 85.492 180.304C85.492 178.96 85.6733 177.627 86.036 176.304C86.42 174.96 86.9853 173.744 87.732 172.656C88.4787 171.568 89.428 170.693 90.58 170.032C91.7533 169.371 93.1293 169.04 94.708 169.04C95.54 169.04 96.2867 169.157 96.948 169.392C97.6093 169.627 98.132 170.011 98.516 170.544C98.9 171.077 99.092 171.803 99.092 172.72C99.092 173.957 98.7187 175.003 97.972 175.856C97.2467 176.688 96.276 177.328 95.06 177.776C93.844 178.203 92.5 178.416 91.028 178.416C90.7507 178.416 90.4413 178.416 90.1 178.416C89.78 178.395 89.5133 178.373 89.3 178.352C89.2787 178.693 89.2573 179.035 89.236 179.376C89.2147 179.696 89.204 179.995 89.204 180.272C89.204 181.424 89.4173 182.331 89.844 182.992C90.2707 183.632 91.0493 183.952 92.18 183.952C93.0973 183.952 93.9187 183.739 94.644 183.312C95.3693 182.864 95.9347 182.235 96.34 181.424C96.6387 181.509 96.8413 181.68 96.948 181.936C97.0547 182.192 97.108 182.459 97.108 182.736C97.108 183.376 96.884 183.995 96.436 184.592C95.988 185.189 95.3373 185.68 94.484 186.064C93.6307 186.448 92.596 186.64 91.38 186.64ZM89.524 176.784C90.2493 176.784 90.964 176.709 91.668 176.56C92.3933 176.411 93.0547 176.176 93.652 175.856C94.2493 175.515 94.7187 175.088 95.06 174.576C95.4227 174.043 95.604 173.424 95.604 172.72C95.604 172.101 95.4547 171.643 95.156 171.344C94.8787 171.024 94.4733 170.864 93.94 170.864C93.3427 170.864 92.788 171.056 92.276 171.44C91.7853 171.803 91.3587 172.283 90.996 172.88C90.6333 173.477 90.324 174.117 90.068 174.8C89.8333 175.483 89.652 176.144 89.524 176.784ZM109.817 186.704C109.135 186.704 108.463 186.629 107.801 186.48C107.161 186.352 106.575 186.149 106.041 185.872C105.508 185.595 105.081 185.243 104.761 184.816C104.463 184.389 104.313 183.899 104.313 183.344C104.313 182.725 104.473 182.245 104.793 181.904C105.113 181.563 105.487 181.317 105.913 181.168C106.361 180.997 106.788 180.912 107.193 180.912C107.428 180.912 107.663 180.944 107.897 181.008C108.132 181.051 108.324 181.157 108.473 181.328C108.367 181.627 108.271 181.915 108.185 182.192C108.1 182.448 108.057 182.747 108.057 183.088C108.079 183.621 108.292 184.059 108.697 184.4C109.103 184.72 109.657 184.88 110.361 184.88C111.129 184.88 111.769 184.677 112.281 184.272C112.815 183.845 113.081 183.301 113.081 182.64C113.081 182.085 112.932 181.595 112.633 181.168C112.335 180.72 111.94 180.315 111.449 179.952C110.98 179.568 110.489 179.195 109.977 178.832C109.401 178.427 108.836 178 108.281 177.552C107.727 177.083 107.268 176.56 106.905 175.984C106.564 175.387 106.393 174.683 106.393 173.872C106.393 173.083 106.596 172.389 107.001 171.792C107.407 171.173 107.94 170.661 108.601 170.256C109.263 169.851 109.999 169.552 110.809 169.36C111.641 169.147 112.463 169.04 113.273 169.04C114.02 169.04 114.756 169.136 115.481 169.328C116.228 169.52 116.847 169.851 117.337 170.32C117.828 170.768 118.063 171.387 118.041 172.176C118.041 173.008 117.775 173.648 117.241 174.096C116.729 174.544 116.164 174.768 115.545 174.768C115.311 174.768 115.055 174.747 114.777 174.704C114.5 174.64 114.255 174.523 114.041 174.352C114.191 174.075 114.297 173.787 114.361 173.488C114.447 173.189 114.489 172.891 114.489 172.592C114.489 172.037 114.297 171.611 113.913 171.312C113.551 170.992 113.028 170.832 112.345 170.832C111.663 170.832 111.076 171.024 110.585 171.408C110.116 171.771 109.881 172.283 109.881 172.944C109.881 173.413 109.999 173.84 110.233 174.224C110.468 174.608 110.777 174.971 111.161 175.312C111.545 175.653 111.961 175.984 112.409 176.304C113.071 176.752 113.721 177.221 114.361 177.712C115.023 178.181 115.567 178.725 115.993 179.344C116.441 179.963 116.655 180.72 116.633 181.616C116.633 182.661 116.303 183.568 115.641 184.336C115.001 185.083 114.159 185.659 113.113 186.064C112.068 186.491 110.969 186.704 109.817 186.704ZM125.286 186.64C124.07 186.64 123.014 186.416 122.118 185.968C121.244 185.499 120.572 184.795 120.102 183.856C119.633 182.917 119.398 181.733 119.398 180.304C119.398 178.96 119.58 177.627 119.942 176.304C120.326 174.96 120.892 173.744 121.638 172.656C122.385 171.568 123.334 170.693 124.486 170.032C125.66 169.371 127.036 169.04 128.614 169.04C129.446 169.04 130.193 169.157 130.854 169.392C131.516 169.627 132.038 170.011 132.422 170.544C132.806 171.077 132.998 171.803 132.998 172.72C132.998 173.957 132.625 175.003 131.878 175.856C131.153 176.688 130.182 177.328 128.966 177.776C127.75 178.203 126.406 178.416 124.934 178.416C124.657 178.416 124.348 178.416 124.006 178.416C123.686 178.395 123.42 178.373 123.206 178.352C123.185 178.693 123.164 179.035 123.142 179.376C123.121 179.696 123.11 179.995 123.11 180.272C123.11 181.424 123.324 182.331 123.75 182.992C124.177 183.632 124.956 183.952 126.086 183.952C127.004 183.952 127.825 183.739 128.55 183.312C129.276 182.864 129.841 182.235 130.246 181.424C130.545 181.509 130.748 181.68 130.854 181.936C130.961 182.192 131.014 182.459 131.014 182.736C131.014 183.376 130.79 183.995 130.342 184.592C129.894 185.189 129.244 185.68 128.39 186.064C127.537 186.448 126.502 186.64 125.286 186.64ZM123.43 176.784C124.156 176.784 124.87 176.709 125.574 176.56C126.3 176.411 126.961 176.176 127.558 175.856C128.156 175.515 128.625 175.088 128.966 174.576C129.329 174.043 129.51 173.424 129.51 172.72C129.51 172.101 129.361 171.643 129.062 171.344C128.785 171.024 128.38 170.864 127.846 170.864C127.249 170.864 126.694 171.056 126.182 171.44C125.692 171.803 125.265 172.283 124.902 172.88C124.54 173.477 124.23 174.117 123.974 174.8C123.74 175.483 123.558 176.144 123.43 176.784ZM138.663 186.64C137.618 186.64 136.775 186.437 136.135 186.032C135.517 185.648 135.069 185.104 134.791 184.4C134.514 183.696 134.375 182.907 134.375 182.032C134.375 181.413 134.45 180.603 134.599 179.6C134.77 178.597 135.015 177.296 135.335 175.696C135.677 174.096 136.114 172.091 136.647 169.68L140.135 169.296C139.687 171.472 139.314 173.275 139.015 174.704C138.717 176.112 138.482 177.264 138.311 178.16C138.162 179.056 138.055 179.792 137.991 180.368C137.927 180.923 137.895 181.424 137.895 181.872C137.895 182.341 137.949 182.8 138.055 183.248C138.183 183.675 138.407 184.027 138.727 184.304C139.047 184.581 139.474 184.72 140.007 184.72C140.775 184.72 141.415 184.464 141.927 183.952C142.439 183.419 142.845 182.757 143.143 181.968C143.463 181.179 143.687 180.389 143.815 179.6L145.735 169.68L149.351 169.296L146.759 182.672C146.738 182.864 146.706 183.088 146.663 183.344C146.621 183.6 146.599 183.824 146.599 184.016C146.599 184.336 146.674 184.592 146.823 184.784C146.994 184.976 147.239 185.083 147.559 185.104C147.495 185.467 147.335 185.765 147.079 186C146.845 186.213 146.567 186.373 146.247 186.48C145.927 186.587 145.586 186.64 145.223 186.64C144.626 186.64 144.135 186.48 143.751 186.16C143.367 185.861 143.122 185.413 143.015 184.816C142.589 185.456 141.959 185.915 141.127 186.192C140.295 186.491 139.474 186.64 138.663 186.64ZM155.755 186.704C155.072 186.704 154.4 186.629 153.739 186.48C153.099 186.352 152.512 186.149 151.979 185.872C151.445 185.595 151.019 185.243 150.699 184.816C150.4 184.389 150.251 183.899 150.251 183.344C150.251 182.725 150.411 182.245 150.731 181.904C151.051 181.563 151.424 181.317 151.851 181.168C152.299 180.997 152.725 180.912 153.131 180.912C153.365 180.912 153.6 180.944 153.835 181.008C154.069 181.051 154.261 181.157 154.411 181.328C154.304 181.627 154.208 181.915 154.123 182.192C154.037 182.448 153.995 182.747 153.995 183.088C154.016 183.621 154.229 184.059 154.635 184.4C155.04 184.72 155.595 184.88 156.299 184.88C157.067 184.88 157.707 184.677 158.219 184.272C158.752 183.845 159.019 183.301 159.019 182.64C159.019 182.085 158.869 181.595 158.571 181.168C158.272 180.72 157.877 180.315 157.387 179.952C156.917 179.568 156.427 179.195 155.915 178.832C155.339 178.427 154.773 178 154.219 177.552C153.664 177.083 153.205 176.56 152.843 175.984C152.501 175.387 152.331 174.683 152.331 173.872C152.331 173.083 152.533 172.389 152.939 171.792C153.344 171.173 153.877 170.661 154.539 170.256C155.2 169.851 155.936 169.552 156.747 169.36C157.579 169.147 158.4 169.04 159.211 169.04C159.957 169.04 160.693 169.136 161.419 169.328C162.165 169.52 162.784 169.851 163.275 170.32C163.765 170.768 164 171.387 163.979 172.176C163.979 173.008 163.712 173.648 163.179 174.096C162.667 174.544 162.101 174.768 161.483 174.768C161.248 174.768 160.992 174.747 160.715 174.704C160.437 174.64 160.192 174.523 159.979 174.352C160.128 174.075 160.235 173.787 160.299 173.488C160.384 173.189 160.427 172.891 160.427 172.592C160.427 172.037 160.235 171.611 159.851 171.312C159.488 170.992 158.965 170.832 158.283 170.832C157.6 170.832 157.013 171.024 156.523 171.408C156.053 171.771 155.819 172.283 155.819 172.944C155.819 173.413 155.936 173.84 156.171 174.224C156.405 174.608 156.715 174.971 157.099 175.312C157.483 175.653 157.899 175.984 158.347 176.304C159.008 176.752 159.659 177.221 160.299 177.712C160.96 178.181 161.504 178.725 161.931 179.344C162.379 179.963 162.592 180.72 162.571 181.616C162.571 182.661 162.24 183.568 161.579 184.336C160.939 185.083 160.096 185.659 159.051 186.064C158.005 186.491 156.907 186.704 155.755 186.704ZM175.036 186.704C174.353 186.704 173.681 186.629 173.02 186.48C172.38 186.352 171.793 186.149 171.26 185.872C170.727 185.595 170.3 185.243 169.98 184.816C169.681 184.389 169.532 183.899 169.532 183.344C169.532 182.725 169.692 182.245 170.012 181.904C170.332 181.563 170.705 181.317 171.132 181.168C171.58 180.997 172.007 180.912 172.412 180.912C172.647 180.912 172.881 180.944 173.116 181.008C173.351 181.051 173.543 181.157 173.692 181.328C173.585 181.627 173.489 181.915 173.404 182.192C173.319 182.448 173.276 182.747 173.276 183.088C173.297 183.621 173.511 184.059 173.916 184.4C174.321 184.72 174.876 184.88 175.58 184.88C176.348 184.88 176.988 184.677 177.5 184.272C178.033 183.845 178.3 183.301 178.3 182.64C178.3 182.085 178.151 181.595 177.852 181.168C177.553 180.72 177.159 180.315 176.668 179.952C176.199 179.568 175.708 179.195 175.196 178.832C174.62 178.427 174.055 178 173.5 177.552C172.945 177.083 172.487 176.56 172.124 175.984C171.783 175.387 171.612 174.683 171.612 173.872C171.612 173.083 171.815 172.389 172.22 171.792C172.625 171.173 173.159 170.661 173.82 170.256C174.481 169.851 175.217 169.552 176.028 169.36C176.86 169.147 177.681 169.04 178.492 169.04C179.239 169.04 179.975 169.136 180.7 169.328C181.447 169.52 182.065 169.851 182.556 170.32C183.047 170.768 183.281 171.387 183.26 172.176C183.26 173.008 182.993 173.648 182.46 174.096C181.948 174.544 181.383 174.768 180.764 174.768C180.529 174.768 180.273 174.747 179.996 174.704C179.719 174.64 179.473 174.523 179.26 174.352C179.409 174.075 179.516 173.787 179.58 173.488C179.665 173.189 179.708 172.891 179.708 172.592C179.708 172.037 179.516 171.611 179.132 171.312C178.769 170.992 178.247 170.832 177.564 170.832C176.881 170.832 176.295 171.024 175.804 171.408C175.335 171.771 175.1 172.283 175.1 172.944C175.1 173.413 175.217 173.84 175.452 174.224C175.687 174.608 175.996 174.971 176.38 175.312C176.764 175.653 177.18 175.984 177.628 176.304C178.289 176.752 178.94 177.221 179.58 177.712C180.241 178.181 180.785 178.725 181.212 179.344C181.66 179.963 181.873 180.72 181.852 181.616C181.852 182.661 181.521 183.568 180.86 184.336C180.22 185.083 179.377 185.659 178.332 186.064C177.287 186.491 176.188 186.704 175.036 186.704ZM190.505 186.64C189.289 186.64 188.233 186.416 187.337 185.968C186.462 185.499 185.79 184.795 185.321 183.856C184.852 182.917 184.617 181.733 184.617 180.304C184.617 178.96 184.798 177.627 185.161 176.304C185.545 174.96 186.11 173.744 186.857 172.656C187.604 171.568 188.553 170.693 189.705 170.032C190.878 169.371 192.254 169.04 193.833 169.04C194.665 169.04 195.412 169.157 196.073 169.392C196.734 169.627 197.257 170.011 197.641 170.544C198.025 171.077 198.217 171.803 198.217 172.72C198.217 173.957 197.844 175.003 197.097 175.856C196.372 176.688 195.401 177.328 194.185 177.776C192.969 178.203 191.625 178.416 190.153 178.416C189.876 178.416 189.566 178.416 189.225 178.416C188.905 178.395 188.638 178.373 188.425 178.352C188.404 178.693 188.382 179.035 188.361 179.376C188.34 179.696 188.329 179.995 188.329 180.272C188.329 181.424 188.542 182.331 188.969 182.992C189.396 183.632 190.174 183.952 191.305 183.952C192.222 183.952 193.044 183.739 193.769 183.312C194.494 182.864 195.06 182.235 195.465 181.424C195.764 181.509 195.966 181.68 196.073 181.936C196.18 182.192 196.233 182.459 196.233 182.736C196.233 183.376 196.009 183.995 195.561 184.592C195.113 185.189 194.462 185.68 193.609 186.064C192.756 186.448 191.721 186.64 190.505 186.64ZM188.649 176.784C189.374 176.784 190.089 176.709 190.793 176.56C191.518 176.411 192.18 176.176 192.777 175.856C193.374 175.515 193.844 175.088 194.185 174.576C194.548 174.043 194.729 173.424 194.729 172.72C194.729 172.101 194.58 171.643 194.281 171.344C194.004 171.024 193.598 170.864 193.065 170.864C192.468 170.864 191.913 171.056 191.401 171.44C190.91 171.803 190.484 172.283 190.121 172.88C189.758 173.477 189.449 174.117 189.193 174.8C188.958 175.483 188.777 176.144 188.649 176.784ZM211.05 186.64C210.389 186.64 209.855 186.448 209.45 186.064C209.066 185.701 208.874 185.093 208.874 184.24C208.874 183.771 208.938 183.163 209.066 182.416C209.215 181.669 209.386 180.88 209.578 180.048C209.77 179.195 209.962 178.352 210.154 177.52C210.346 176.688 210.506 175.941 210.634 175.28C210.783 174.597 210.858 174.064 210.858 173.68C210.858 172.976 210.677 172.443 210.314 172.08C209.951 171.696 209.471 171.504 208.874 171.504C208.042 171.504 207.338 171.792 206.762 172.368C206.186 172.944 205.717 173.669 205.354 174.544C204.991 175.397 204.725 176.251 204.554 177.104L202.826 186L199.178 186.384L202.442 169.68L205.482 169.296L205.098 172.176C205.674 171.152 206.442 170.373 207.402 169.84C208.362 169.307 209.375 169.04 210.442 169.04C211.743 169.04 212.735 169.381 213.418 170.064C214.101 170.725 214.442 171.664 214.442 172.88C214.442 173.477 214.378 174.171 214.25 174.96C214.122 175.749 213.951 176.592 213.738 177.488C213.546 178.363 213.354 179.216 213.162 180.048C212.97 180.88 212.799 181.637 212.65 182.32C212.522 183.003 212.458 183.536 212.458 183.92C212.458 184.24 212.522 184.507 212.65 184.72C212.778 184.933 213.034 185.061 213.418 185.104C213.29 185.637 213.002 186.021 212.554 186.256C212.106 186.512 211.605 186.64 211.05 186.64ZM220.037 186.672C219.44 186.672 218.917 186.48 218.469 186.096C218.021 185.712 217.797 185.157 217.797 184.432C217.797 184.005 217.861 183.408 217.989 182.64C218.117 181.851 218.267 181.019 218.437 180.144C218.608 179.269 218.779 178.437 218.949 177.648C219.141 176.837 219.28 176.187 219.365 175.696L220.293 171.12H218.021L218.149 170.16C219.173 169.776 220.187 169.264 221.189 168.624C222.192 167.984 223.077 167.28 223.845 166.512H224.837L224.197 169.68H226.693L226.405 171.12H223.877L221.669 182C221.605 182.341 221.552 182.651 221.509 182.928C221.467 183.184 221.435 183.429 221.413 183.664C221.392 184.24 221.499 184.645 221.733 184.88C221.968 185.093 222.395 185.136 223.013 185.008C222.821 185.413 222.576 185.733 222.277 185.968C222 186.203 221.669 186.373 221.285 186.48C220.901 186.608 220.485 186.672 220.037 186.672ZM228.73 186.64C228.047 186.64 227.514 186.448 227.13 186.064C226.746 185.68 226.554 185.147 226.554 184.464C226.554 184.208 226.575 183.899 226.618 183.536C226.66 183.173 226.714 182.8 226.778 182.416C226.842 182.011 226.906 181.637 226.97 181.296C227.055 180.933 227.119 180.624 227.162 180.368L229.338 169.68L232.986 169.296L230.298 182.672C230.276 182.843 230.244 183.067 230.202 183.344C230.159 183.6 230.138 183.824 230.138 184.016C230.138 184.336 230.212 184.592 230.362 184.784C230.532 184.976 230.778 185.083 231.098 185.104C230.97 185.637 230.671 186.021 230.202 186.256C229.754 186.512 229.263 186.64 228.73 186.64ZM231.962 166.864C231.279 166.864 230.714 166.704 230.266 166.384C229.818 166.043 229.594 165.541 229.594 164.88C229.594 164.176 229.828 163.664 230.298 163.344C230.767 163.003 231.343 162.832 232.026 162.832C232.708 162.832 233.274 163.003 233.722 163.344C234.17 163.664 234.394 164.155 234.394 164.816C234.394 165.52 234.159 166.043 233.69 166.384C233.22 166.704 232.644 166.864 231.962 166.864ZM239.318 186.64C238.23 186.64 237.345 186.384 236.662 185.872C236.001 185.339 235.51 184.624 235.19 183.728C234.891 182.811 234.742 181.765 234.742 180.592C234.742 179.013 234.955 177.531 235.382 176.144C235.83 174.736 236.438 173.499 237.206 172.432C237.995 171.365 238.934 170.533 240.022 169.936C241.11 169.339 242.283 169.04 243.542 169.04C244.182 169.04 244.758 169.104 245.27 169.232C245.803 169.339 246.369 169.509 246.966 169.744L249.942 170.192C249.558 172.24 249.163 174.309 248.758 176.4C248.374 178.469 247.958 180.56 247.51 182.672C247.489 182.864 247.457 183.088 247.414 183.344C247.371 183.6 247.35 183.824 247.35 184.016C247.35 184.336 247.425 184.592 247.574 184.784C247.745 184.976 248.001 185.083 248.342 185.104C248.235 185.467 248.054 185.765 247.798 186C247.563 186.213 247.286 186.373 246.966 186.48C246.667 186.587 246.326 186.64 245.942 186.64C245.366 186.64 244.875 186.48 244.47 186.16C244.065 185.861 243.83 185.413 243.766 184.816C243.211 185.349 242.55 185.787 241.782 186.128C241.035 186.469 240.214 186.64 239.318 186.64ZM240.726 184.72C241.537 184.72 242.187 184.453 242.678 183.92C243.19 183.387 243.595 182.725 243.894 181.936C244.193 181.125 244.417 180.347 244.566 179.6L245.974 171.952C245.547 171.611 245.099 171.365 244.63 171.216C244.182 171.045 243.766 170.96 243.382 170.96C242.721 170.96 242.123 171.152 241.59 171.536C241.078 171.92 240.619 172.443 240.214 173.104C239.83 173.765 239.499 174.533 239.222 175.408C238.966 176.283 238.774 177.221 238.646 178.224C238.518 179.205 238.454 180.197 238.454 181.2C238.454 182.181 238.614 183.013 238.934 183.696C239.254 184.379 239.851 184.72 240.726 184.72ZM249.878 170.512L246.358 170.256C246.571 169.083 246.753 167.899 246.902 166.704C247.073 165.509 247.169 164.485 247.19 163.632C247.19 163.376 247.179 163.141 247.158 162.928C247.158 162.715 247.137 162.512 247.094 162.32C247.286 162.192 247.531 162.085 247.83 162C248.129 161.915 248.449 161.872 248.79 161.872C249.345 161.872 249.857 162.043 250.326 162.384C250.795 162.704 251.03 163.291 251.03 164.144C251.03 164.379 250.966 164.837 250.838 165.52C250.731 166.203 250.593 166.992 250.422 167.888C250.251 168.784 250.07 169.659 249.878 170.512ZM257.721 186.64C256.611 186.64 255.694 186.469 254.969 186.128C254.265 185.787 253.71 185.339 253.305 184.784C252.899 184.208 252.611 183.589 252.441 182.928C252.291 182.245 252.217 181.584 252.217 180.944C252.217 179.493 252.387 178.064 252.729 176.656C253.091 175.248 253.635 173.968 254.361 172.816C255.107 171.664 256.046 170.747 257.177 170.064C258.329 169.381 259.705 169.04 261.305 169.04C262.435 169.04 263.353 169.211 264.057 169.552C264.761 169.893 265.315 170.352 265.721 170.928C266.147 171.483 266.435 172.101 266.585 172.784C266.734 173.445 266.809 174.085 266.809 174.704C266.809 176.155 266.627 177.595 266.265 179.024C265.923 180.432 265.379 181.712 264.633 182.864C263.907 184.016 262.969 184.933 261.817 185.616C260.686 186.299 259.321 186.64 257.721 186.64ZM258.329 184.72C258.969 184.72 259.545 184.507 260.057 184.08C260.569 183.653 261.017 183.077 261.401 182.352C261.785 181.605 262.094 180.784 262.329 179.888C262.585 178.971 262.777 178.032 262.905 177.072C263.033 176.112 263.097 175.184 263.097 174.288C263.097 173.307 262.926 172.507 262.585 171.888C262.243 171.269 261.625 170.96 260.729 170.96C260.089 170.96 259.502 171.173 258.969 171.6C258.435 172.027 257.977 172.603 257.593 173.328C257.23 174.053 256.921 174.875 256.665 175.792C256.409 176.688 256.217 177.627 256.089 178.608C255.982 179.568 255.929 180.496 255.929 181.392C255.929 182.352 256.099 183.152 256.441 183.792C256.803 184.411 257.433 184.72 258.329 184.72ZM273.411 186.704C272.728 186.704 272.056 186.629 271.395 186.48C270.755 186.352 270.168 186.149 269.635 185.872C269.102 185.595 268.675 185.243 268.355 184.816C268.056 184.389 267.907 183.899 267.907 183.344C267.907 182.725 268.067 182.245 268.387 181.904C268.707 181.563 269.08 181.317 269.507 181.168C269.955 180.997 270.382 180.912 270.787 180.912C271.022 180.912 271.256 180.944 271.491 181.008C271.726 181.051 271.918 181.157 272.067 181.328C271.96 181.627 271.864 181.915 271.779 182.192C271.694 182.448 271.651 182.747 271.651 183.088C271.672 183.621 271.886 184.059 272.291 184.4C272.696 184.72 273.251 184.88 273.955 184.88C274.723 184.88 275.363 184.677 275.875 184.272C276.408 183.845 276.675 183.301 276.675 182.64C276.675 182.085 276.526 181.595 276.227 181.168C275.928 180.72 275.534 180.315 275.043 179.952C274.574 179.568 274.083 179.195 273.571 178.832C272.995 178.427 272.43 178 271.875 177.552C271.32 177.083 270.862 176.56 270.499 175.984C270.158 175.387 269.987 174.683 269.987 173.872C269.987 173.083 270.19 172.389 270.595 171.792C271 171.173 271.534 170.661 272.195 170.256C272.856 169.851 273.592 169.552 274.403 169.36C275.235 169.147 276.056 169.04 276.867 169.04C277.614 169.04 278.35 169.136 279.075 169.328C279.822 169.52 280.44 169.851 280.931 170.32C281.422 170.768 281.656 171.387 281.635 172.176C281.635 173.008 281.368 173.648 280.835 174.096C280.323 174.544 279.758 174.768 279.139 174.768C278.904 174.768 278.648 174.747 278.371 174.704C278.094 174.64 277.848 174.523 277.635 174.352C277.784 174.075 277.891 173.787 277.955 173.488C278.04 173.189 278.083 172.891 278.083 172.592C278.083 172.037 277.891 171.611 277.507 171.312C277.144 170.992 276.622 170.832 275.939 170.832C275.256 170.832 274.67 171.024 274.179 171.408C273.71 171.771 273.475 172.283 273.475 172.944C273.475 173.413 273.592 173.84 273.827 174.224C274.062 174.608 274.371 174.971 274.755 175.312C275.139 175.653 275.555 175.984 276.003 176.304C276.664 176.752 277.315 177.221 277.955 177.712C278.616 178.181 279.16 178.725 279.587 179.344C280.035 179.963 280.248 180.72 280.227 181.616C280.227 182.661 279.896 183.568 279.235 184.336C278.595 185.083 277.752 185.659 276.707 186.064C275.662 186.491 274.563 186.704 273.411 186.704ZM286.064 180.112C285.595 180.112 285.221 179.973 284.944 179.696C284.688 179.419 284.56 179.035 284.56 178.544C284.56 178.437 284.571 178.288 284.592 178.096C284.635 177.904 284.699 177.563 284.784 177.072C284.869 176.581 285.008 175.856 285.2 174.896C285.392 173.915 285.648 172.603 285.968 170.96C286.288 169.296 286.693 167.195 287.184 164.656C287.461 164.549 287.728 164.475 287.984 164.432C288.24 164.389 288.485 164.368 288.72 164.368C289.36 164.368 289.819 164.539 290.096 164.88C290.395 165.2 290.544 165.712 290.544 166.416C290.544 167.035 290.448 167.771 290.256 168.624C290.064 169.456 289.819 170.352 289.52 171.312C289.243 172.272 288.955 173.253 288.656 174.256C288.379 175.237 288.133 176.187 287.92 177.104C287.707 178 287.589 178.832 287.568 179.6C287.376 179.771 287.141 179.899 286.864 179.984C286.608 180.069 286.341 180.112 286.064 180.112ZM285.072 186.576C284.368 186.576 283.813 186.405 283.408 186.064C283.003 185.744 282.8 185.296 282.8 184.72C282.8 184.101 283.013 183.632 283.44 183.312C283.867 182.971 284.443 182.8 285.168 182.8C285.851 182.8 286.384 182.96 286.768 183.28C287.173 183.6 287.376 184.059 287.376 184.656C287.376 185.253 287.163 185.723 286.736 186.064C286.331 186.405 285.776 186.576 285.072 186.576Z" fill="url(#paint1_linear_197_6)"/>
</g>
<defs>
<filter id="filter0_d_197_6" x="42.7783" y="22.72" width="202.236" height="136.862" filterUnits="userSpaceOnUse" color-interpolation-filters="sRGB">
<feFlood flood-opacity="0" result="BackgroundImageFix"/>
<feColorMatrix in="SourceAlpha" type="matrix" values="0 0 0 0 0 0 0 0 0 0 0 0 0 0 0 0 0 0 127 0" result="hardAlpha"/>
<feOffset dy="4"/>
<feGaussianBlur stdDeviation="2"/>
<feComposite in2="hardAlpha" operator="out"/>
<feColorMatrix type="matrix" values="0 0 0 0 0 0 0 0 0 0 0 0 0 0 0 0 0 0 0.25 0"/>
<feBlend mode="normal" in2="BackgroundImageFix" result="effect1_dropShadow_197_6"/>
<feBlend mode="normal" in="SourceGraphic" in2="effect1_dropShadow_197_6" result="shape"/>
</filter>
<filter id="filter1_d_197_6" x="0.242188" y="161.872" width="294.302" height="38.4641" filterUnits="userSpaceOnUse" color-interpolation-filters="sRGB">
<feFlood flood-opacity="0" result="BackgroundImageFix"/>
<feColorMatrix in="SourceAlpha" type="matrix" values="0 0 0 0 0 0 0 0 0 0 0 0 0 0 0 0 0 0 127 0" result="hardAlpha"/>
<feOffset dy="4"/>
<feGaussianBlur stdDeviation="2"/>
<feComposite in2="hardAlpha" operator="out"/>
<feColorMatrix type="matrix" values="0 0 0 0 0 0 0 0 0 0 0 0 0 0 0 0 0 0 0.25 0"/>
<feBlend mode="normal" in2="BackgroundImageFix" result="effect1_dropShadow_197_6"/>
<feBlend mode="normal" in="SourceGraphic" in2="effect1_dropShadow_197_6" result="shape"/>
</filter>
<linearGradient id="paint0_linear_197_6" x1="54.7849" y1="90.2947" x2="233.264" y2="66.2225" gradientUnits="userSpaceOnUse">
<stop stop-color="#FF00D6"/>
<stop offset="1" stop-color="#FF6B00"/>
</linearGradient>
<linearGradient id="paint1_linear_197_6" x1="15.9084" y1="164.8" x2="235.602" y2="62.8263" gradientUnits="userSpaceOnUse">
<stop stop-color="#FF00D6"/>
<stop offset="1" stop-color="#FF6B00"/>
</linearGradient>
</defs>
</svg>
