<svg width="196" height="154" viewBox="0 0 196 154" fill="none" xmlns="http://www.w3.org/2000/svg">
<path d="M31.2724 31.156C28.6084 31.156 26.8818 32.932 26.0924 36.484C25.3524 39.9867 24.9824 44.1553 24.9824 48.99C24.9824 54.5647 25.8211 58.9307 27.4984 62.088C29.1758 65.196 32.0371 66.75 36.0824 66.75C40.4238 66.75 43.7784 64.678 46.1464 60.534C48.0704 61.718 49.0324 63.5187 49.0324 65.936C49.0324 68.452 48.1938 70.598 46.5164 72.374C44.8391 74.15 42.6684 75.4573 40.0044 76.296C37.3898 77.184 34.6764 77.628 31.8644 77.628C26.4378 77.628 21.9238 76.518 18.3224 74.298C14.7704 72.0287 12.1558 68.97 10.4784 65.122C8.80109 61.274 7.96242 56.8587 7.96242 51.876C7.96242 43.4893 9.98509 37.0267 14.0304 32.488C18.1251 27.9493 24.2178 25.68 32.3084 25.68C36.9951 25.68 40.9171 26.4447 44.0744 27.974C47.2811 29.5033 48.8844 32.0687 48.8844 35.67C48.8844 38.2353 47.9964 40.2827 46.2204 41.812C44.4444 43.292 42.2491 44.032 39.6344 44.032C38.0064 44.032 36.7238 43.884 35.7864 43.588C36.0824 42.108 36.2304 40.7513 36.2304 39.518C36.2304 37.002 35.8851 34.9793 35.1944 33.45C34.5038 31.9207 33.1964 31.156 31.2724 31.156ZM71.6666 36.78C78.0306 36.78 82.8653 38.5067 86.1706 41.96C89.5253 45.364 91.2026 50.248 91.2026 56.612C91.2026 60.8053 90.4379 64.4807 88.9086 67.638C87.3793 70.7953 85.1346 73.262 82.1746 75.038C79.2639 76.7647 75.7613 77.628 71.6666 77.628C67.6706 77.628 64.1926 76.7893 61.2326 75.112C58.3219 73.4347 56.0773 71.0667 54.4986 68.008C52.9199 64.9493 52.1306 61.3973 52.1306 57.352C52.1306 50.8893 53.8079 45.8573 57.1626 42.256C60.5666 38.6053 65.4013 36.78 71.6666 36.78ZM71.6666 73.188C73.6893 73.188 74.9719 71.6833 75.5146 68.674C76.1066 65.6647 76.4026 61.7673 76.4026 56.982C76.4026 52.246 76.1066 48.4473 75.5146 45.586C74.9719 42.6753 73.6893 41.22 71.6666 41.22C69.6439 41.22 68.3366 42.6753 67.7446 45.586C67.2019 48.4473 66.9306 52.246 66.9306 56.982C66.9306 61.7673 67.2019 65.6647 67.7446 68.674C68.3366 71.6833 69.6439 73.188 71.6666 73.188ZM111.255 22.72V67.342C111.255 70.5487 112.02 73.1387 113.549 75.112C112.809 75.7533 111.773 76.2467 110.441 76.592C109.109 76.9373 107.851 77.11 106.667 77.11C103.461 77.11 100.994 76.3453 99.2674 74.816C97.5901 73.2867 96.7514 70.968 96.7514 67.86V24.2L111.255 22.72ZM136.778 36.78C143.142 36.78 147.977 38.5067 151.282 41.96C154.637 45.364 156.314 50.248 156.314 56.612C156.314 60.8053 155.549 64.4807 154.02 67.638C152.491 70.7953 150.246 73.262 147.286 75.038C144.375 76.7647 140.873 77.628 136.778 77.628C132.782 77.628 129.304 76.7893 126.344 75.112C123.433 73.4347 121.189 71.0667 119.61 68.008C118.031 64.9493 117.242 61.3973 117.242 57.352C117.242 50.8893 118.919 45.8573 122.274 42.256C125.678 38.6053 130.513 36.78 136.778 36.78ZM136.778 73.188C138.801 73.188 140.083 71.6833 140.626 68.674C141.218 65.6647 141.514 61.7673 141.514 56.982C141.514 52.246 141.218 48.4473 140.626 45.586C140.083 42.6753 138.801 41.22 136.778 41.22C134.755 41.22 133.448 42.6753 132.856 45.586C132.313 48.4473 132.042 52.246 132.042 56.982C132.042 61.7673 132.313 65.6647 132.856 68.674C133.448 71.6833 134.755 73.188 136.778 73.188ZM179.549 43.144C178.118 43.144 177.23 43.9333 176.885 45.512C176.539 47.0413 176.367 49.3107 176.367 52.32V76H161.863V38.26L173.555 37.372L174.147 44.032C174.985 41.7133 176.317 39.9373 178.143 38.704C180.017 37.4213 182.213 36.78 184.729 36.78C187.886 36.78 190.377 37.668 192.203 39.444C194.077 41.1707 195.015 43.588 195.015 46.696C195.015 49.3107 194.275 51.358 192.795 52.838C191.364 54.2687 189.317 54.984 186.653 54.984C186.011 54.984 185.247 54.9347 184.359 54.836C183.52 54.688 182.928 54.4907 182.583 54.244C182.879 52.9613 183.027 51.506 183.027 49.878C183.027 45.3887 181.867 43.144 179.549 43.144Z" fill="white"/>
<path d="M45.8447 125.238L38.8887 119.318C41.1087 119.367 43.0327 118.849 44.6607 117.764C46.3381 116.679 47.6207 115.223 48.5087 113.398C49.3967 111.523 49.8407 109.501 49.8407 107.33C49.8407 104.37 49.0514 101.977 47.4727 100.152C45.8941 98.2773 43.8714 96.9207 41.4047 96.082C38.9874 95.194 36.4467 94.75 33.7827 94.75C31.4641 94.75 29.2194 95.0707 27.0487 95.712C24.8781 96.304 22.9294 97.2167 21.2027 98.45C19.4761 99.634 18.0947 101.089 17.0587 102.816C16.0721 104.543 15.5787 106.541 15.5787 108.81C15.5787 110.29 15.7021 111.696 15.9487 113.028C16.2447 114.36 16.7874 115.914 17.5767 117.69C16.7874 118.578 15.8254 119.219 14.6907 119.614C13.6054 120.009 12.6434 120.206 11.8047 120.206C9.38741 120.206 7.34008 119.688 5.66274 118.652C4.03474 117.567 2.80141 116.185 1.96274 114.508C1.17341 112.831 0.778742 111.079 0.778742 109.254C0.778742 105.85 1.76541 102.939 3.73874 100.522C5.76141 98.0553 8.45008 96.0573 11.8047 94.528C15.1594 92.9493 18.8594 91.79 22.9047 91.05C26.9501 90.31 31.0201 89.94 35.1147 89.94C42.4654 89.94 48.4594 90.7047 53.0967 92.234C57.7341 93.7633 61.1381 95.8353 63.3087 98.45C65.5287 101.065 66.6387 104.025 66.6387 107.33C66.6387 109.747 65.9974 111.992 64.7147 114.064C63.4814 116.087 61.8287 117.887 59.7567 119.466C57.6847 120.995 55.4401 122.278 53.0227 123.314C50.6054 124.301 48.2127 124.942 45.8447 125.238ZM20.9807 142.776C18.8594 142.776 16.9601 142.381 15.2827 141.592C13.6054 140.803 12.7174 139.717 12.6187 138.336C13.5067 137.991 14.1481 137.571 14.5427 137.078C14.9374 136.535 15.2581 135.721 15.5047 134.636C15.7514 133.551 16.0474 132.046 16.3927 130.122L19.8707 112.14C20.4627 109.18 21.2027 106.713 22.0907 104.74C23.0281 102.767 24.3354 101.287 26.0127 100.3C27.7394 99.3133 30.1074 98.82 33.1167 98.82C35.1394 98.82 36.9647 99.19 38.5927 99.93C40.2701 100.621 41.1827 101.607 41.3307 102.89C40.5907 103.186 39.9987 103.63 39.5547 104.222C39.1601 104.814 38.8394 105.653 38.5927 106.738C38.3461 107.823 38.0254 109.328 37.6307 111.252L34.2267 129.086C33.6841 132.095 32.9687 134.636 32.0807 136.708C31.1927 138.731 29.8854 140.235 28.1587 141.222C26.4814 142.258 24.0887 142.776 20.9807 142.776ZM57.3887 151.582C54.2314 151.582 51.7401 150.941 49.9147 149.658C48.1387 148.375 46.7574 146.747 45.7707 144.774C45.1787 143.541 44.6607 142.233 44.2167 140.852C43.8221 139.471 43.4521 138.015 43.1067 136.486C42.7614 134.907 42.3914 133.23 41.9967 131.454C41.6514 129.678 41.2321 127.779 40.7387 125.756C40.2454 123.733 39.6287 121.587 38.8887 119.318L51.9127 123.092C52.9981 124.325 54.0587 125.83 55.0947 127.606C56.1307 129.333 57.1667 131.133 58.2027 133.008C59.2881 134.833 60.3734 136.56 61.4587 138.188C62.5441 139.816 63.6787 141.123 64.8627 142.11C66.0467 143.146 67.2801 143.689 68.5627 143.738C67.9707 146.106 66.6881 148.005 64.7147 149.436C62.7414 150.867 60.2994 151.582 57.3887 151.582ZM79.3355 142.48C77.2635 142.48 75.3395 142.159 73.5635 141.518C71.8369 140.926 70.4555 139.915 69.4195 138.484C68.3835 137.053 67.8655 135.105 67.8655 132.638C67.8655 131.553 68.0135 129.9 68.3095 127.68C68.6055 125.411 69.0742 122.303 69.7155 118.356C70.4062 114.409 71.2695 109.377 72.3055 103.26L88.8075 101.632C87.8209 107.059 86.9575 111.671 86.2175 115.47C85.5269 119.219 84.9349 122.327 84.4415 124.794C83.9975 127.261 83.6522 129.259 83.4055 130.788C83.2082 132.317 83.1095 133.551 83.1095 134.488C83.1095 135.031 83.1342 135.549 83.1835 136.042C83.2822 136.535 83.4549 136.93 83.7015 137.226C83.9975 137.522 84.4662 137.67 85.1075 137.67C86.3409 137.67 87.3522 137.201 88.1415 136.264C88.9309 135.327 89.5475 134.192 89.9915 132.86C90.4355 131.479 90.7562 130.221 90.9535 129.086L95.3935 103.26L111.822 101.632L106.642 129.16C106.592 129.555 106.518 130.048 106.42 130.64C106.321 131.232 106.272 131.775 106.272 132.268C106.272 133.255 106.568 134.192 107.16 135.08C107.752 135.919 108.714 136.387 110.046 136.486C109.651 137.867 108.862 139.002 107.678 139.89C106.543 140.778 105.26 141.419 103.83 141.814C102.399 142.258 101.018 142.48 99.6855 142.48C98.0082 142.48 96.3802 142.135 94.8015 141.444C93.2722 140.753 92.2362 139.693 91.6935 138.262C90.3122 139.594 88.5115 140.63 86.2915 141.37C84.1209 142.11 81.8022 142.48 79.3355 142.48ZM128.32 142.628C126.199 142.628 124.102 142.48 122.03 142.184C120.007 141.937 118.133 141.493 116.406 140.852C114.729 140.211 113.397 139.347 112.41 138.262C111.423 137.177 110.93 135.82 110.93 134.192C110.979 132.761 111.349 131.553 112.04 130.566C112.681 129.579 113.619 128.815 114.852 128.272C116.135 127.729 117.664 127.458 119.44 127.458C120.525 127.458 121.66 127.581 122.844 127.828C124.028 128.075 125.015 128.445 125.804 128.938C125.557 129.925 125.409 130.813 125.36 131.602C125.311 132.391 125.286 133.304 125.286 134.34C125.385 135.573 125.804 136.585 126.544 137.374C127.333 138.163 128.394 138.558 129.726 138.558C131.107 138.558 132.193 138.262 132.982 137.67C133.821 137.029 134.24 136.239 134.24 135.302C134.289 134.019 133.697 132.835 132.464 131.75C131.28 130.615 129.775 129.505 127.95 128.42C126.174 127.335 124.373 126.2 122.548 125.016C121.117 124.029 119.81 122.969 118.626 121.834C117.491 120.699 116.603 119.466 115.962 118.134C115.321 116.753 115 115.248 115 113.62C115.049 111.597 115.666 109.846 116.85 108.366C118.034 106.837 119.588 105.603 121.512 104.666C123.485 103.679 125.656 102.964 128.024 102.52C130.441 102.027 132.859 101.78 135.276 101.78C137.743 101.78 140.16 102.076 142.528 102.668C144.896 103.211 146.845 104.123 148.374 105.406C149.903 106.639 150.643 108.317 150.594 110.438C150.545 112.609 149.805 114.212 148.374 115.248C146.943 116.284 145.019 116.802 142.602 116.802C141.566 116.802 140.481 116.679 139.346 116.432C138.261 116.136 137.274 115.741 136.386 115.248C136.583 114.705 136.731 114.089 136.83 113.398C136.978 112.658 137.077 111.918 137.126 111.178C137.175 109.55 136.855 108.218 136.164 107.182C135.473 106.146 134.413 105.603 132.982 105.554C132.045 105.554 131.181 105.85 130.392 106.442C129.652 106.985 129.257 107.823 129.208 108.958C129.159 110.093 129.603 111.203 130.54 112.288C131.477 113.324 132.711 114.36 134.24 115.396C135.769 116.383 137.373 117.369 139.05 118.356C140.826 119.392 142.38 120.477 143.712 121.612C145.093 122.697 146.179 123.931 146.968 125.312C147.757 126.644 148.127 128.223 148.078 130.048C148.029 132.416 147.264 134.537 145.784 136.412C144.304 138.287 142.109 139.791 139.198 140.926C136.287 142.011 132.661 142.579 128.32 142.628ZM183.436 142.48C180.723 142.48 178.478 141.814 176.702 140.482C174.926 139.101 174.038 137.053 174.038 134.34C174.038 133.255 174.186 131.947 174.482 130.418C174.778 128.839 175.124 127.187 175.518 125.46C175.962 123.684 176.382 121.908 176.776 120.132C177.171 118.356 177.516 116.654 177.812 115.026C178.108 113.398 178.256 111.967 178.256 110.734C178.256 109.994 178.158 109.279 177.96 108.588C177.763 107.848 177.171 107.478 176.184 107.478C175 107.478 174.038 108.07 173.298 109.254C172.558 110.389 171.942 111.77 171.448 113.398C171.004 115.026 170.634 116.58 170.338 118.06L165.898 141L149.47 142.628L156.352 108.07L171.078 106.22C172.608 104.543 174.458 103.383 176.628 102.742C178.799 102.101 181.093 101.78 183.51 101.78C186.618 101.78 189.159 102.421 191.132 103.704C193.106 104.937 194.092 107.182 194.092 110.438C194.092 111.671 193.944 113.053 193.648 114.582C193.402 116.062 193.081 117.616 192.686 119.244C192.292 120.823 191.897 122.401 191.502 123.98C191.157 125.509 190.836 126.965 190.54 128.346C190.294 129.727 190.17 130.936 190.17 131.972C190.17 133.255 190.466 134.291 191.058 135.08C191.65 135.869 192.612 136.338 193.944 136.486C193.303 138.558 191.946 140.063 189.874 141C187.802 141.987 185.656 142.48 183.436 142.48ZM170.486 109.55L156.204 108.736C156.648 106.664 157.043 104.641 157.388 102.668C157.734 100.645 158.03 98.672 158.276 96.748C158.523 94.7747 158.72 92.9 158.868 91.124C158.918 90.4827 158.918 89.866 158.868 89.274C158.868 88.6327 158.868 88.016 158.868 87.424C160.398 86.5853 161.902 86.018 163.382 85.722C164.862 85.3767 166.244 85.204 167.526 85.204C169.697 85.204 171.473 85.7467 172.854 86.832C174.236 87.868 174.902 89.6193 174.852 92.086C174.852 92.9247 174.778 93.788 174.63 94.676C174.532 95.564 174.359 96.526 174.112 97.562C173.866 98.5487 173.57 99.634 173.224 100.818C172.879 102.002 172.484 103.334 172.04 104.814C171.596 106.245 171.078 107.823 170.486 109.55Z" fill="url(#paint0_linear_172_276)"/>
<defs>
<linearGradient id="paint0_linear_172_276" x1="8.78486" y1="90.2947" x2="187.264" y2="66.2225" gradientUnits="userSpaceOnUse">
<stop stop-color="#FF00D6"/>
<stop offset="1" stop-color="#FF6B00"/>
</linearGradient>
</defs>
</svg>
