<svg width="254" height="161" viewBox="0 0 254 161" fill="none" xmlns="http://www.w3.org/2000/svg">
<path d="M56.2724 31.156C53.6084 31.156 51.8818 32.932 51.0924 36.484C50.3524 39.9867 49.9824 44.1553 49.9824 48.99C49.9824 54.5647 50.8211 58.9307 52.4984 62.088C54.1758 65.196 57.0371 66.75 61.0824 66.75C65.4238 66.75 68.7784 64.678 71.1464 60.534C73.0704 61.718 74.0324 63.5187 74.0324 65.936C74.0324 68.452 73.1938 70.598 71.5164 72.374C69.8391 74.15 67.6684 75.4573 65.0044 76.296C62.3898 77.184 59.6764 77.628 56.8644 77.628C51.4378 77.628 46.9238 76.518 43.3224 74.298C39.7704 72.0287 37.1558 68.97 35.4784 65.122C33.8011 61.274 32.9624 56.8587 32.9624 51.876C32.9624 43.4893 34.9851 37.0267 39.0304 32.488C43.1251 27.9493 49.2178 25.68 57.3084 25.68C61.9951 25.68 65.9171 26.4447 69.0744 27.974C72.2811 29.5033 73.8844 32.0687 73.8844 35.67C73.8844 38.2353 72.9964 40.2827 71.2204 41.812C69.4444 43.292 67.2491 44.032 64.6344 44.032C63.0064 44.032 61.7238 43.884 60.7864 43.588C61.0824 42.108 61.2304 40.7513 61.2304 39.518C61.2304 37.002 60.8851 34.9793 60.1944 33.45C59.5038 31.9207 58.1964 31.156 56.2724 31.156ZM96.6666 36.78C103.031 36.78 107.865 38.5067 111.171 41.96C114.525 45.364 116.203 50.248 116.203 56.612C116.203 60.8053 115.438 64.4807 113.909 67.638C112.379 70.7953 110.135 73.262 107.175 75.038C104.264 76.7647 100.761 77.628 96.6666 77.628C92.6706 77.628 89.1926 76.7893 86.2326 75.112C83.3219 73.4347 81.0773 71.0667 79.4986 68.008C77.9199 64.9493 77.1306 61.3973 77.1306 57.352C77.1306 50.8893 78.8079 45.8573 82.1626 42.256C85.5666 38.6053 90.4013 36.78 96.6666 36.78ZM96.6666 73.188C98.6893 73.188 99.9719 71.6833 100.515 68.674C101.107 65.6647 101.403 61.7673 101.403 56.982C101.403 52.246 101.107 48.4473 100.515 45.586C99.9719 42.6753 98.6893 41.22 96.6666 41.22C94.6439 41.22 93.3366 42.6753 92.7446 45.586C92.2019 48.4473 91.9306 52.246 91.9306 56.982C91.9306 61.7673 92.2019 65.6647 92.7446 68.674C93.3366 71.6833 94.6439 73.188 96.6666 73.188ZM136.255 22.72V67.342C136.255 70.5487 137.02 73.1387 138.549 75.112C137.809 75.7533 136.773 76.2467 135.441 76.592C134.109 76.9373 132.851 77.11 131.667 77.11C128.461 77.11 125.994 76.3453 124.267 74.816C122.59 73.2867 121.751 70.968 121.751 67.86V24.2L136.255 22.72ZM161.778 36.78C168.142 36.78 172.977 38.5067 176.282 41.96C179.637 45.364 181.314 50.248 181.314 56.612C181.314 60.8053 180.549 64.4807 179.02 67.638C177.491 70.7953 175.246 73.262 172.286 75.038C169.375 76.7647 165.873 77.628 161.778 77.628C157.782 77.628 154.304 76.7893 151.344 75.112C148.433 73.4347 146.189 71.0667 144.61 68.008C143.031 64.9493 142.242 61.3973 142.242 57.352C142.242 50.8893 143.919 45.8573 147.274 42.256C150.678 38.6053 155.513 36.78 161.778 36.78ZM161.778 73.188C163.801 73.188 165.083 71.6833 165.626 68.674C166.218 65.6647 166.514 61.7673 166.514 56.982C166.514 52.246 166.218 48.4473 165.626 45.586C165.083 42.6753 163.801 41.22 161.778 41.22C159.755 41.22 158.448 42.6753 157.856 45.586C157.313 48.4473 157.042 52.246 157.042 56.982C157.042 61.7673 157.313 65.6647 157.856 68.674C158.448 71.6833 159.755 73.188 161.778 73.188ZM204.549 43.144C203.118 43.144 202.23 43.9333 201.885 45.512C201.539 47.0413 201.367 49.3107 201.367 52.32V76H186.863V38.26L198.555 37.372L199.147 44.032C199.985 41.7133 201.317 39.9373 203.143 38.704C205.017 37.4213 207.213 36.78 209.729 36.78C212.886 36.78 215.377 37.668 217.203 39.444C219.077 41.1707 220.015 43.588 220.015 46.696C220.015 49.3107 219.275 51.358 217.795 52.838C216.364 54.2687 214.317 54.984 211.653 54.984C211.011 54.984 210.247 54.9347 209.359 54.836C208.52 54.688 207.928 54.4907 207.583 54.244C207.879 52.9613 208.027 51.506 208.027 49.878C208.027 45.3887 206.867 43.144 204.549 43.144Z" fill="white"/>
<path d="M45.9199 132.238L38.9639 126.318C41.1839 126.367 43.1079 125.849 44.7359 124.764C46.4133 123.679 47.6959 122.223 48.5839 120.398C49.4719 118.523 49.9159 116.501 49.9159 114.33C49.9159 111.37 49.1266 108.977 47.5479 107.152C45.9693 105.277 43.9466 103.921 41.4799 103.082C39.0626 102.194 36.5219 101.75 33.8579 101.75C31.5393 101.75 29.2946 102.071 27.1239 102.712C24.9533 103.304 23.0046 104.217 21.2779 105.45C19.5513 106.634 18.1699 108.089 17.1339 109.816C16.1473 111.543 15.6539 113.541 15.6539 115.81C15.6539 117.29 15.7773 118.696 16.0239 120.028C16.3199 121.36 16.8626 122.914 17.6519 124.69C16.8626 125.578 15.9006 126.219 14.7659 126.614C13.6806 127.009 12.7186 127.206 11.8799 127.206C9.4626 127.206 7.41527 126.688 5.73794 125.652C4.10994 124.567 2.8766 123.185 2.03794 121.508C1.2486 119.831 0.853938 118.079 0.853938 116.254C0.853938 112.85 1.8406 109.939 3.81394 107.522C5.8366 105.055 8.52527 103.057 11.8799 101.528C15.2346 99.9493 18.9346 98.79 22.9799 98.05C27.0253 97.31 31.0953 96.94 35.1899 96.94C42.5406 96.94 48.5346 97.7047 53.1719 99.234C57.8093 100.763 61.2133 102.835 63.3839 105.45C65.6039 108.065 66.7139 111.025 66.7139 114.33C66.7139 116.747 66.0726 118.992 64.7899 121.064C63.5566 123.087 61.9039 124.887 59.8319 126.466C57.7599 127.995 55.5153 129.278 53.0979 130.314C50.6806 131.301 48.2879 131.942 45.9199 132.238ZM21.0559 149.776C18.9346 149.776 17.0353 149.381 15.3579 148.592C13.6806 147.803 12.7926 146.717 12.6939 145.336C13.5819 144.991 14.2233 144.571 14.6179 144.078C15.0126 143.535 15.3333 142.721 15.5799 141.636C15.8266 140.551 16.1226 139.046 16.4679 137.122L19.9459 119.14C20.5379 116.18 21.2779 113.713 22.1659 111.74C23.1033 109.767 24.4106 108.287 26.0879 107.3C27.8146 106.313 30.1826 105.82 33.1919 105.82C35.2146 105.82 37.0399 106.19 38.6679 106.93C40.3453 107.621 41.2579 108.607 41.4059 109.89C40.6659 110.186 40.0739 110.63 39.6299 111.222C39.2353 111.814 38.9146 112.653 38.6679 113.738C38.4213 114.823 38.1006 116.328 37.7059 118.252L34.3019 136.086C33.7593 139.095 33.0439 141.636 32.1559 143.708C31.2679 145.731 29.9606 147.235 28.2339 148.222C26.5566 149.258 24.1639 149.776 21.0559 149.776ZM57.4639 158.582C54.3066 158.582 51.8153 157.941 49.9899 156.658C48.2139 155.375 46.8326 153.747 45.8459 151.774C45.2539 150.541 44.7359 149.233 44.2919 147.852C43.8973 146.471 43.5273 145.015 43.1819 143.486C42.8366 141.907 42.4666 140.23 42.0719 138.454C41.7266 136.678 41.3073 134.779 40.8139 132.756C40.3206 130.733 39.7039 128.587 38.9639 126.318L51.9879 130.092C53.0733 131.325 54.1339 132.83 55.1699 134.606C56.2059 136.333 57.2419 138.133 58.2779 140.008C59.3633 141.833 60.4486 143.56 61.5339 145.188C62.6193 146.816 63.7539 148.123 64.9379 149.11C66.1219 150.146 67.3553 150.689 68.6379 150.738C68.0459 153.106 66.7633 155.005 64.7899 156.436C62.8166 157.867 60.3746 158.582 57.4639 158.582ZM98.5027 149.48C94.7534 149.48 91.6207 148.469 89.1047 146.446C86.6381 144.374 85.4047 141.241 85.4047 137.048C85.4047 134.68 85.7254 132.115 86.3667 129.352C87.0574 126.54 87.8467 123.679 88.7347 120.768C89.6227 117.857 90.3874 115.045 91.0287 112.332C91.7194 109.569 92.0647 107.078 92.0647 104.858C92.0647 103.279 91.7934 102.169 91.2507 101.528C90.7574 100.887 90.0914 100.566 89.2527 100.566C87.8714 100.566 86.7614 101.503 85.9227 103.378C85.1334 105.203 84.7387 107.621 84.7387 110.63C84.7387 112.061 84.8621 113.417 85.1087 114.7C85.3554 115.983 85.8734 117.512 86.6627 119.288C85.8734 120.225 84.9114 120.891 83.7767 121.286C82.6421 121.681 81.6307 121.878 80.7427 121.878C78.4241 121.878 76.4507 121.385 74.8227 120.398C73.1947 119.362 71.9614 118.005 71.1227 116.328C70.3334 114.651 69.9387 112.875 69.9387 111C69.9387 109.125 70.3581 107.251 71.1967 105.376C72.0354 103.452 73.3181 101.676 75.0447 100.048C76.7714 98.42 78.9667 97.1127 81.6307 96.126C84.3441 95.1393 87.5261 94.646 91.1767 94.646C94.0874 94.646 96.8007 95.0653 99.3167 95.904C101.833 96.7427 103.88 98.0993 105.459 99.974C107.037 101.799 107.827 104.217 107.827 107.226C107.827 109.446 107.555 111.814 107.013 114.33C106.47 116.846 105.829 119.411 105.089 122.026C104.349 124.591 103.707 127.132 103.165 129.648C102.622 132.115 102.351 134.433 102.351 136.604C102.351 138.331 102.721 139.638 103.461 140.526C104.25 141.365 105.015 141.784 105.755 141.784C107.185 141.784 108.493 141.266 109.677 140.23C110.91 139.194 111.921 137.961 112.711 136.53C113.549 135.099 114.092 133.792 114.339 132.608L118.631 109.224C119.371 105.129 120.752 102.219 122.775 100.492C124.797 98.716 127.313 97.828 130.323 97.828C131.457 97.828 132.641 97.9513 133.875 98.198C135.108 98.3953 136.391 98.6913 137.723 99.086L130.767 135.642C130.717 135.987 130.643 136.456 130.545 137.048C130.495 137.591 130.471 138.183 130.471 138.824C130.471 140.205 130.693 141.463 131.137 142.598C131.63 143.733 132.567 144.423 133.949 144.67C132.567 146.15 130.865 147.309 128.843 148.148C126.82 149.036 124.822 149.48 122.849 149.48C120.925 149.48 119.173 148.987 117.595 148C116.016 147.063 115.029 145.435 114.635 143.116C112.661 145.336 110.17 146.964 107.161 148C104.201 148.987 101.315 149.48 98.5027 149.48ZM155.868 149.48C151.971 149.48 148.789 148.839 146.322 147.556C143.905 146.224 142.129 144.571 140.994 142.598C139.909 140.625 139.366 138.651 139.366 136.678C139.366 134.951 139.786 133.299 140.624 131.72C141.463 130.092 142.647 128.76 144.176 127.724C145.755 126.688 147.654 126.17 149.874 126.17C151.601 126.17 153.18 126.515 154.61 127.206C156.09 127.847 157.25 128.76 158.088 129.944C158.976 131.079 159.42 132.411 159.42 133.94C159.42 134.187 159.396 134.458 159.346 134.754C159.346 135.05 159.297 135.346 159.198 135.642C158.804 135.494 158.409 135.371 158.014 135.272C157.62 135.173 157.225 135.124 156.83 135.124C155.597 135.124 154.635 135.593 153.944 136.53C153.303 137.418 152.982 138.38 152.982 139.416C152.982 140.501 153.352 141.587 154.092 142.672C154.882 143.757 156.214 144.3 158.088 144.3C159.026 144.3 159.914 144.103 160.752 143.708C161.64 143.313 162.38 142.647 162.972 141.71C163.564 140.723 163.86 139.416 163.86 137.788C163.86 135.765 163.318 134.014 162.232 132.534C161.147 131.054 159.79 129.697 158.162 128.464C156.534 127.231 154.857 125.973 153.13 124.69C151.798 123.703 150.565 122.643 149.43 121.508C148.296 120.324 147.358 118.992 146.618 117.512C145.928 116.032 145.582 114.355 145.582 112.48C145.582 110.063 146.224 107.941 147.506 106.116C148.838 104.241 150.565 102.687 152.686 101.454C154.857 100.221 157.25 99.2833 159.864 98.642C162.479 98.0007 165.094 97.68 167.708 97.68C170.52 97.68 173.135 97.9267 175.552 98.42C178.019 98.9133 180.017 99.8013 181.546 101.084C183.076 102.317 183.84 104.044 183.84 106.264C183.84 108.139 183.372 109.668 182.434 110.852C181.497 112.036 180.288 112.899 178.808 113.442C177.378 113.985 175.898 114.256 174.368 114.256C173.678 114.256 172.938 114.231 172.148 114.182C171.408 114.083 170.668 113.935 169.928 113.738C170.274 112.653 170.52 111.641 170.668 110.704C170.816 109.767 170.89 108.903 170.89 108.114C170.89 106.437 170.57 105.055 169.928 103.97C169.336 102.885 168.128 102.342 166.302 102.342C165.217 102.342 164.23 102.761 163.342 103.6C162.504 104.439 162.084 105.623 162.084 107.152C162.084 108.583 162.553 109.841 163.49 110.926C164.428 112.011 165.612 113.047 167.042 114.034C168.522 114.971 170.076 116.007 171.704 117.142C173.184 118.178 174.59 119.337 175.922 120.62C177.254 121.903 178.34 123.407 179.178 125.134C180.017 126.861 180.436 128.933 180.436 131.35C180.436 134.359 179.696 136.999 178.216 139.268C176.736 141.537 174.788 143.437 172.37 144.966C169.953 146.495 167.289 147.63 164.378 148.37C161.517 149.11 158.68 149.48 155.868 149.48ZM224.661 148.666L232.505 107.3C233.048 104.636 233.788 102.367 234.725 100.492C235.662 98.568 236.994 97.1127 238.721 96.126C240.448 95.09 242.717 94.572 245.529 94.572C247.552 94.572 249.303 94.9667 250.783 95.756C252.312 96.496 253.126 97.5567 253.225 98.938C252.09 100.221 251.227 101.75 250.635 103.526C250.043 105.302 249.525 107.473 249.081 110.038C248.686 112.603 248.119 115.761 247.379 119.51L241.977 147.038L224.661 148.666ZM203.867 151.7C201.746 151.7 199.896 151.305 198.317 150.516C196.738 149.727 195.9 148.691 195.801 147.408C196.64 147.063 197.256 146.594 197.651 146.002C198.095 145.361 198.44 144.497 198.687 143.412C198.934 142.327 199.23 140.871 199.575 139.046L204.015 115.736C204.656 112.381 205.939 109.619 207.863 107.448C209.787 105.228 212.155 103.477 214.967 102.194C217.828 100.862 220.986 99.8507 224.439 99.16L216.743 138.306C216.2 141.167 215.485 143.609 214.597 145.632C213.709 147.605 212.426 149.11 210.749 150.146C209.121 151.182 206.827 151.7 203.867 151.7ZM196.467 121.878C194 121.878 191.953 121.36 190.325 120.324C188.697 119.288 187.488 117.931 186.699 116.254C185.91 114.577 185.515 112.825 185.515 111C185.515 108.681 186.107 106.363 187.291 104.044C188.524 101.725 190.3 99.8013 192.619 98.272C194.938 96.6933 197.799 95.904 201.203 95.904C203.275 95.904 205.15 96.0767 206.827 96.422C208.554 96.7673 210.231 97.162 211.859 97.606C213.536 98.0007 215.362 98.3707 217.335 98.716C219.358 99.012 221.726 99.16 224.439 99.16L212.155 103.748L211.933 102.934C210.897 102.391 209.96 102.046 209.121 101.898C208.332 101.75 207.69 101.676 207.197 101.676C205.174 101.676 203.522 102.49 202.239 104.118C201.006 105.697 200.389 107.867 200.389 110.63C200.389 112.061 200.512 113.417 200.759 114.7C201.006 115.983 201.524 117.512 202.313 119.288C201.524 120.225 200.562 120.891 199.427 121.286C198.292 121.681 197.306 121.878 196.467 121.878ZM216.521 126.984L217.853 120.916H232.875L231.691 126.984H216.521Z" fill="url(#paint0_linear_100_93)"/>
<defs>
<linearGradient id="paint0_linear_100_93" x1="11.25" y1="97.2947" x2="237.229" y2="58.2634" gradientUnits="userSpaceOnUse">
<stop stop-color="#FF00D6"/>
<stop offset="1" stop-color="#FF6B00"/>
</linearGradient>
</defs>
</svg>
